<svg width="16" height="16" viewBox="0 0 16 16" fill="none" xmlns="http://www.w3.org/2000/svg">
<path d="M0.875 8.05769H0.375H0.875ZM0.875 12.875H1.375H0.875ZM12.875 15.125L12.875 15.625V15.625L12.875 15.125ZM3.125 15.125V15.625H3.125L3.125 15.125ZM15.125 8.05771H14.625H15.125ZM15.125 12.875H15.625H15.125ZM12.875 5.80771L12.875 6.30771L12.875 5.80771ZM3.125 5.80769L3.125 6.30769H3.125L3.125 5.80769ZM3.11538 5.25961C3.11538 5.53576 3.33924 5.75961 3.61538 5.75961C3.89153 5.75961 4.11538 5.53576 4.11538 5.25961H3.11538ZM10.4276 2.2268C10.6431 2.39951 10.9578 2.36487 11.1305 2.14941C11.3032 1.93395 11.2686 1.61927 11.0531 1.44655L10.4276 2.2268ZM7.5 11.2885C7.5 11.5646 7.72386 11.7885 8 11.7885C8.27614 11.7885 8.5 11.5646 8.5 11.2885H7.5ZM8.5 9.09615C8.5 8.82001 8.27614 8.59615 8 8.59615C7.72386 8.59615 7.5 8.82001 7.5 9.09615H8.5ZM0.375 8.05769L0.375 12.875H1.375L1.375 8.05769H0.375ZM12.875 14.625L3.125 14.625L3.125 15.625L12.875 15.625L12.875 14.625ZM14.625 8.05771V12.875H15.625V8.05771H14.625ZM12.875 5.30771L3.125 5.30769L3.125 6.30769L12.875 6.30771L12.875 5.30771ZM15.625 8.05771C15.625 6.53893 14.3938 5.30771 12.875 5.30771L12.875 6.30771C13.8415 6.30771 14.625 7.09121 14.625 8.05771H15.625ZM1.375 8.05769C1.375 7.09119 2.1585 6.30769 3.125 6.30769L3.125 5.30769C1.60622 5.30769 0.375 6.53891 0.375 8.05769H1.375ZM0.375 12.875C0.375 14.3938 1.60622 15.625 3.125 15.625V14.625C2.1585 14.625 1.375 13.8415 1.375 12.875H0.375ZM12.875 15.625C14.3938 15.625 15.625 14.3938 15.625 12.875L14.625 12.875C14.625 13.8415 13.8415 14.625 12.875 14.625L12.875 15.625ZM4.11538 5.25961C4.11538 3.1142 5.85459 1.375 8 1.375V0.375C5.3023 0.375 3.11538 2.56192 3.11538 5.25961H4.11538ZM8 1.375C8.91915 1.375 9.76251 1.6936 10.4276 2.2268L11.0531 1.44655C10.217 0.776264 9.15466 0.375 8 0.375V1.375ZM8.5 11.2885L8.5 9.09615H7.5L7.5 11.2885H8.5Z" fill="white"/>
</svg>
