<svg width="22" height="25" viewBox="0 0 22 25" fill="none" xmlns="http://www.w3.org/2000/svg">
<path fill-rule="evenodd" clip-rule="evenodd" d="M17.2427 8.84667C17.0007 9.03667 16.6867 9.18867 16.308 9.312C16.3805 10.0526 16.2971 10.8002 16.0633 11.5067C15.8296 12.2132 15.4505 12.863 14.9506 13.4142C14.4506 13.9654 13.8409 14.4059 13.1605 14.7074C12.4801 15.0088 11.7442 15.1645 11 15.1645C10.2559 15.1645 9.51993 15.0088 8.83955 14.7074C8.15918 14.4059 7.54942 13.9654 7.04948 13.4142C6.54955 12.863 6.1705 12.2132 5.93671 11.5067C5.70293 10.8002 5.61958 10.0526 5.69203 9.312C5.31336 9.18867 4.99936 9.03667 4.75803 8.84667C4.44469 8.6 4.23469 8.27067 4.21003 7.87467C4.18669 7.50733 4.33203 7.19533 4.47736 6.97533C4.62083 6.76695 4.79119 6.57843 4.98403 6.41467C5.07736 6.33267 5.16936 6.26 5.25469 6.19667C5.22936 6.06 5.20136 5.89467 5.17336 5.70333C5.05526 4.86298 4.99733 4.01527 5.00003 3.16667C5.00003 2.95733 5.08936 2.80133 5.13069 2.73533C5.18269 2.652 5.24403 2.58067 5.30003 2.52333C5.41136 2.40667 5.55536 2.288 5.71336 2.174C6.03336 1.942 6.47336 1.68133 6.99603 1.43733C8.03803 0.950667 9.46936 0.5 11 0.5C12.5314 0.5 13.962 0.951333 15.004 1.43733C15.4534 1.64285 15.8827 1.88946 16.2867 2.174C16.4447 2.288 16.5887 2.40733 16.7 2.52333C16.756 2.58067 16.8174 2.652 16.8694 2.73533C16.9107 2.80133 17 2.95733 17 3.16667C17 4.23467 16.9134 5.1 16.8267 5.70333C16.7987 5.89467 16.7707 6.06 16.7454 6.19667C16.8307 6.26 16.9234 6.33267 17.0167 6.41467C17.1834 6.56067 17.374 6.75067 17.5227 6.97533C17.6687 7.19533 17.8134 7.50733 17.7907 7.87533C17.766 8.27067 17.556 8.6 17.2427 8.84667ZM6.33469 3.37867C6.34469 4.27733 6.41936 5.004 6.49336 5.512C6.51069 5.632 6.52803 5.73867 6.54403 5.83333H15.456C15.4727 5.73867 15.4894 5.63133 15.5067 5.512C15.58 5.004 15.6554 4.27733 15.6654 3.37867C15.6135 3.3348 15.5599 3.29299 15.5047 3.25333C15.264 3.07933 14.8987 2.86 14.44 2.646C13.518 2.21533 12.2827 1.83333 11 1.83333C9.71736 1.83333 8.48203 2.21533 7.56003 2.646C7.10136 2.86 6.73603 3.07933 6.49603 3.25267C6.4406 3.29274 6.38678 3.335 6.33469 3.37933V3.37867ZM6.19203 7.16667L6.19003 7.168C6.07496 7.24467 5.96475 7.32839 5.86003 7.41867C5.74136 7.52267 5.64669 7.624 5.58936 7.712C5.57571 7.73179 5.56346 7.75251 5.55269 7.774C5.56213 7.78261 5.57192 7.79084 5.58203 7.79867C5.68203 7.87733 5.89669 7.99267 6.31536 8.10667C6.39803 8.12933 6.48669 8.15067 6.58136 8.172L6.58736 8.17333C6.92203 8.24733 7.33403 8.31333 7.83603 8.36533C8.54736 8.43933 9.44269 8.488 10.5614 8.49867L11 8.5C13.1514 8.5 14.5427 8.366 15.4134 8.17333L15.4187 8.172C15.514 8.15067 15.6027 8.12933 15.6854 8.10667C16.1034 7.99333 16.3187 7.87733 16.418 7.79867C16.4281 7.79084 16.4379 7.78261 16.4474 7.774C16.4368 7.75253 16.4248 7.73182 16.4114 7.712C16.3338 7.60303 16.2426 7.50445 16.14 7.41867C16.0355 7.32839 15.9255 7.24468 15.8107 7.168L15.808 7.16667H6.19203ZM10.8187 9.83333C12.58 9.83333 13.9454 9.74 14.992 9.57733C15.0264 10.1209 14.9495 10.6657 14.7659 11.1785C14.5823 11.6912 14.2959 12.1611 13.9243 12.5592C13.5527 12.9574 13.1037 13.2755 12.6048 13.494C12.1059 13.7125 11.5677 13.8268 11.0231 13.83C10.4784 13.8331 9.9389 13.725 9.43754 13.5122C8.93618 13.2995 8.48354 12.9866 8.10738 12.5927C7.73121 12.1989 7.43944 11.7324 7.24994 11.2218C7.06044 10.7112 6.97722 10.1672 7.00536 9.62333C7.98069 9.758 9.23069 9.83333 10.8187 9.83333ZM5.71869 22.418C5.68395 22.666 5.66658 22.9162 5.66669 23.1667V23.8333C5.66677 23.9799 5.61855 24.1224 5.52949 24.2388C5.44044 24.3552 5.31551 24.439 5.17403 24.4772C5.03256 24.5155 4.88242 24.5061 4.74685 24.4504C4.61127 24.3947 4.49781 24.296 4.42403 24.1693C3.97472 24.4131 3.44894 24.4749 2.95536 24.342L1.66736 23.9967C1.1552 23.8592 0.718599 23.5239 0.453564 23.0646C0.188529 22.6053 0.116756 22.0596 0.254025 21.5473L0.771358 19.6153C0.908692 19.103 1.24389 18.6663 1.70321 18.4011C2.16254 18.136 2.70838 18.0641 3.22069 18.2013L4.50869 18.546C4.95669 18.666 5.32869 18.9293 5.58736 19.2733C6.2045 18.4143 7.01744 17.7147 7.95882 17.2324C8.90021 16.7501 9.94296 16.499 11.0007 16.5C12.0579 16.4993 13.1 16.7504 14.0409 17.2324C14.9818 17.7144 15.7943 18.4136 16.4114 19.272C16.6793 18.9166 17.0586 18.6613 17.4887 18.5467L18.7767 18.202C19.2889 18.0647 19.8347 18.1365 20.294 18.4015C20.7533 18.6666 21.0885 19.1032 21.226 19.6153L21.744 21.548C21.812 21.8017 21.8293 22.0663 21.795 22.3267C21.7606 22.5871 21.6754 22.8382 21.544 23.0657C21.4126 23.2931 21.2377 23.4925 21.0293 23.6523C20.8209 23.8122 20.5831 23.9294 20.3294 23.9973L19.042 24.342C18.5493 24.475 18.0244 24.4139 17.5754 24.1713C17.5013 24.2978 17.3877 24.3963 17.2521 24.4517C17.1164 24.5071 16.9663 24.5163 16.825 24.4778C16.6836 24.4393 16.5588 24.3554 16.47 24.2389C16.3811 24.1224 16.3331 23.9798 16.3334 23.8333V23.1667C16.3335 22.9162 16.3161 22.666 16.2814 22.418L12.812 23.348C12.651 23.6927 12.395 23.9843 12.074 24.1886C11.7531 24.3929 11.3805 24.5014 11 24.5014C10.6196 24.5014 10.247 24.3929 9.92604 24.1886C9.60509 23.9843 9.34907 23.6927 9.18803 23.348L5.71869 22.418ZM9.08003 21.938C9.1695 21.6341 9.32974 21.3557 9.5476 21.1257C9.76546 20.8956 10.0347 20.7205 10.3334 20.6147V17.8747C9.39826 17.9929 8.51112 18.3565 7.76207 18.9286C7.01303 19.5008 6.42878 20.261 6.06869 21.132L9.08003 21.938ZM15.9314 21.1313C15.5712 20.2604 14.9869 19.5003 14.2378 18.9284C13.4888 18.3564 12.6017 17.9928 11.6667 17.8747V20.614C12.2694 20.8273 12.74 21.3207 12.92 21.9387L15.9314 21.132V21.1313ZM17.3627 20.6513C17.34 20.5668 17.3342 20.4786 17.3456 20.3917C17.357 20.3049 17.3854 20.2212 17.4292 20.1454C17.473 20.0695 17.5312 20.0031 17.6007 19.9497C17.6702 19.8964 17.7494 19.8573 17.834 19.8347L19.122 19.4893C19.2927 19.4437 19.4746 19.4677 19.6276 19.5561C19.7806 19.6445 19.8922 19.79 19.938 19.9607L20.456 21.8927C20.4787 21.9772 20.4845 22.0655 20.4731 22.1523C20.4617 22.2391 20.4333 22.3228 20.3895 22.3986C20.3458 22.4745 20.2875 22.5409 20.218 22.5943C20.1486 22.6476 20.0693 22.6867 19.9847 22.7093L18.6967 23.0547C18.6121 23.0773 18.5238 23.0831 18.437 23.0717C18.3501 23.0602 18.2664 23.0318 18.1905 22.9879C18.1147 22.9441 18.0482 22.8857 17.995 22.8162C17.9417 22.7467 17.9026 22.6673 17.88 22.5827L17.3627 20.6513ZM2.87603 19.4893C2.79141 19.4665 2.70313 19.4607 2.61624 19.472C2.52935 19.4834 2.44555 19.5118 2.36964 19.5556C2.29373 19.5993 2.22719 19.6576 2.17384 19.7272C2.12048 19.7967 2.08135 19.876 2.05869 19.9607L1.54136 21.892C1.51867 21.9766 1.51287 22.0648 1.52428 22.1516C1.53569 22.2384 1.56409 22.3221 1.60786 22.398C1.65163 22.4738 1.70991 22.5403 1.77937 22.5936C1.84883 22.6469 1.92812 22.686 2.01269 22.7087L3.30069 23.054C3.38526 23.0767 3.47348 23.0825 3.56029 23.0711C3.6471 23.0597 3.73082 23.0313 3.80666 22.9875C3.8825 22.9437 3.94897 22.8855 4.00228 22.816C4.05559 22.7465 4.09469 22.6672 4.11736 22.5827L4.63469 20.6507C4.65748 20.5661 4.66336 20.4778 4.652 20.3909C4.64063 20.304 4.61225 20.2202 4.56848 20.1443C4.5247 20.0684 4.46639 20.0018 4.39687 19.9485C4.32736 19.8951 4.24801 19.856 4.16336 19.8333L2.87536 19.4887L2.87603 19.4893ZM11.6667 22.5C11.6667 22.6768 11.5965 22.8464 11.4714 22.9714C11.3464 23.0964 11.1768 23.1667 11 23.1667C10.8232 23.1667 10.6536 23.0964 10.5286 22.9714C10.4036 22.8464 10.3334 22.6768 10.3334 22.5C10.3334 22.3232 10.4036 22.1536 10.5286 22.0286C10.6536 21.9036 10.8232 21.8333 11 21.8333C11.1768 21.8333 11.3464 21.9036 11.4714 22.0286C11.5965 22.1536 11.6667 22.3232 11.6667 22.5Z" fill="black"/>
</svg>
