<svg width="20" height="17" viewBox="0 0 20 17" fill="none" xmlns="http://www.w3.org/2000/svg">
<path d="M14.2207 12.7731C16.4936 12.7731 18.3627 12.6468 18.9702 12.2407C19.2544 12.0506 19.5268 11.5383 19.4979 11.1759C19.4979 8.83044 15.573 8.83044 15.573 8.83044C15.573 8.83044 15.573 8.83044 15.573 8.83044H14.2582C14.2332 8.83044 14.2086 8.83074 14.1836 8.83162C13.8115 8.84474 10.7656 8.98335 10.684 10.0063M17.387 3.72217C17.387 4.89833 16.4419 5.8518 15.2761 5.8518C14.1103 5.8518 13.1653 4.89833 13.1653 3.72217C13.1653 2.546 14.1103 1.59253 15.2761 1.59253C16.4419 1.59253 17.387 2.546 17.387 3.72217ZM10.4513 3.8604C10.4513 5.7163 8.96002 7.2208 7.12047 7.2208C5.28092 7.2208 3.78967 5.7163 3.78967 3.8604C3.78967 2.0045 5.28092 0.5 7.12047 0.5C8.96002 0.5 10.4513 2.0045 10.4513 3.8604ZM13.2437 14.9947C12.3619 15.5842 10.461 16.5 7.16159 16.5C3.86218 16.5 1.96125 15.5842 1.07944 14.9947C0.666816 14.7188 0.463442 14.2109 0.505406 13.6848C0.551444 13.1076 0.711053 12.5309 0.895198 12.0313C1.25411 11.0575 2.24152 10.526 3.27933 10.526H11.0439C12.0817 10.526 13.0691 11.0575 13.428 12.0313C13.6121 12.5309 13.7717 13.1076 13.8178 13.6848C13.8597 14.2109 13.6564 14.7188 13.2437 14.9947Z" stroke="black" stroke-linecap="round" stroke-linejoin="round"/>
</svg>
