<svg width="32" height="33" viewBox="0 0 32 33" fill="none" xmlns="http://www.w3.org/2000/svg">
<path d="M30.5125 15.5C30.5154 15.4703 30.5111 15.4403 30.5 15.4125V15.3875C30.4975 15.3609 30.489 15.3353 30.475 15.3125L28.725 10.95C28.6151 10.6712 28.4242 10.4316 28.1769 10.2623C27.9296 10.093 27.6372 10.0016 27.3375 10H22.5125V8.5C22.5125 8.36739 22.4598 8.24021 22.3661 8.14645C22.2723 8.05268 22.1451 8 22.0125 8H3.01251C2.61469 8 2.23316 8.15804 1.95185 8.43934C1.67055 8.72064 1.51251 9.10218 1.51251 9.5V23.5C1.51251 23.8978 1.67055 24.2794 1.95185 24.5607C2.23316 24.842 2.61469 25 3.01251 25H5.05001C5.17261 25.8307 5.58978 26.5897 6.22542 27.1384C6.86106 27.6871 7.67279 27.989 8.51251 27.989C9.35223 27.989 10.164 27.6871 10.7996 27.1384C11.4352 26.5897 11.8524 25.8307 11.975 25H20.05C20.1726 25.8307 20.5898 26.5897 21.2254 27.1384C21.8611 27.6871 22.6728 27.989 23.5125 27.989C24.3522 27.989 25.164 27.6871 25.7996 27.1384C26.4352 26.5897 26.8524 25.8307 26.975 25H29.0125C29.4103 25 29.7919 24.842 30.0732 24.5607C30.3545 24.2794 30.5125 23.8978 30.5125 23.5V15.5ZM27.3375 11C27.4369 11.0002 27.534 11.03 27.6164 11.0857C27.6988 11.1414 27.7627 11.2203 27.8 11.3125L29.275 15H22.5125V11H27.3375ZM3.01251 9H21.5125V18H2.51251V9.5C2.51251 9.36739 2.56519 9.24021 2.65896 9.14645C2.75273 9.05268 2.8799 9 3.01251 9ZM2.51251 23.5V19H21.5125V21.625C21.12 21.9006 20.7878 22.2533 20.5364 22.6617C20.2849 23.0701 20.1194 23.5255 20.05 24H11.975C11.8524 23.1693 11.4352 22.4103 10.7996 21.8616C10.164 21.3129 9.35223 21.011 8.51251 21.011C7.67279 21.011 6.86106 21.3129 6.22542 21.8616C5.58978 22.4103 5.17261 23.1693 5.05001 24H3.01251C2.8799 24 2.75273 23.9473 2.65896 23.8536C2.56519 23.7598 2.51251 23.6326 2.51251 23.5ZM8.51251 27C8.01806 27 7.53471 26.8534 7.12359 26.5787C6.71246 26.304 6.39203 25.9135 6.20281 25.4567C6.01359 24.9999 5.96409 24.4972 6.06055 24.0123C6.15701 23.5273 6.39511 23.0819 6.74475 22.7322C7.09438 22.3826 7.53983 22.1445 8.02479 22.048C8.50974 21.9516 9.01241 22.0011 9.46922 22.1903C9.92604 22.3795 10.3165 22.7 10.5912 23.1111C10.8659 23.5222 11.0125 24.0055 11.0125 24.5C11.0092 25.162 10.7448 25.796 10.2766 26.2641C9.80852 26.7323 9.17454 26.9967 8.51251 27ZM23.5125 27C23.0181 27 22.5347 26.8534 22.1236 26.5787C21.7125 26.304 21.392 25.9135 21.2028 25.4567C21.0136 24.9999 20.9641 24.4972 21.0605 24.0123C21.157 23.5273 21.3951 23.0819 21.7447 22.7322C22.0944 22.3826 22.5398 22.1445 23.0248 22.048C23.5097 21.9516 24.0124 22.0011 24.4692 22.1903C24.926 22.3795 25.3165 22.7 25.5912 23.1111C25.8659 23.5222 26.0125 24.0055 26.0125 24.5C26.0092 25.162 25.7448 25.796 25.2766 26.2641C24.8085 26.7323 24.1745 26.9967 23.5125 27ZM29.5125 23.5C29.5125 23.6326 29.4598 23.7598 29.3661 23.8536C29.2723 23.9473 29.1451 24 29.0125 24H26.975C26.8573 23.1662 26.4419 22.4031 25.8055 21.8517C25.169 21.3003 24.3546 20.9978 23.5125 21C23.1734 20.9981 22.8361 21.0487 22.5125 21.15V16H29.5125V23.5Z" fill="black"/>
</svg>
