<svg width="14" height="16" viewBox="0 0 14 16" fill="none" xmlns="http://www.w3.org/2000/svg">
<path d="M1.37502 4.71154L1.02609 4.35342L0.875019 4.50062L0.875019 4.71154L1.37502 4.71154ZM5.31251 0.875V0.375H5.1092L4.96358 0.516886L5.31251 0.875ZM12.625 3.06731H12.125H12.625ZM12.625 12.9327H13.125H12.625ZM1.375 12.9327L1.875 12.9327L1.375 12.9327ZM5.87499 5.25962V5.75962H6.37499V5.25962H5.87499ZM1.37502 5.25962L0.875017 5.25961L1.37502 5.25962ZM1.72395 5.06965L5.66144 1.23311L4.96358 0.516886L1.02609 4.35342L1.72395 5.06965ZM3.625 15.625H10.375V14.625H3.625V15.625ZM12.125 3.06731L12.125 12.9327H13.125L13.125 3.06731H12.125ZM3.625 14.625C2.64618 14.625 1.875 13.8552 1.875 12.9327L0.875 12.9327C0.874996 14.4318 2.11853 15.625 3.625 15.625V14.625ZM10.375 15.625C11.8815 15.625 13.125 14.4318 13.125 12.9327H12.125C12.125 13.8552 11.3538 14.625 10.375 14.625V15.625ZM10.375 1.375C11.3538 1.375 12.125 2.14484 12.125 3.06731H13.125C13.125 1.56822 11.8815 0.375 10.375 0.375V1.375ZM5.31251 1.375H5.87499V0.375H5.31251V1.375ZM5.87499 1.375H10.375V0.375H5.87499V1.375ZM0.875019 4.71154L0.875017 5.25961L1.87502 5.25962L1.87502 4.71154L0.875019 4.71154ZM0.875017 5.25961L0.875 12.9327L1.875 12.9327L1.87502 5.25962L0.875017 5.25961ZM5.37499 0.875V5.25962H6.37499V0.875H5.37499ZM5.87499 4.75962H1.37502V5.75962H5.87499V4.75962ZM4.37501 7.95192H7.00001V6.95192H4.37501V7.95192ZM7.00001 7.95192H9.625V6.95192H7.00001V7.95192ZM4.37501 13.4327H7.00001V12.4327H4.37501V13.4327ZM7.00001 13.4327H9.625V12.4327H7.00001V13.4327ZM6.50001 7.45192V10.1923H7.50001V7.45192H6.50001ZM6.50001 10.1923V12.9327H7.50001V10.1923H6.50001ZM10.875 12.1827V10.1923H9.875V12.1827H10.875ZM10.875 10.1923V8.20192H9.875V10.1923H10.875ZM3.12501 8.20192V10.1923H4.12501V8.20192H3.12501ZM3.12501 10.1923V12.1827H4.12501V10.1923H3.12501ZM10.375 9.6923H7.00001V10.6923H10.375V9.6923ZM7.00001 9.6923H3.62501V10.6923H7.00001V9.6923ZM9.625 13.4327C10.3154 13.4327 10.875 12.873 10.875 12.1827H9.875C9.875 12.3208 9.76307 12.4327 9.625 12.4327V13.4327ZM4.37501 12.4327C4.23694 12.4327 4.12501 12.3208 4.12501 12.1827H3.12501C3.12501 12.873 3.68465 13.4327 4.37501 13.4327V12.4327ZM9.625 7.95192C9.76307 7.95192 9.875 8.06385 9.875 8.20192H10.875C10.875 7.51156 10.3154 6.95192 9.625 6.95192V7.95192ZM4.37501 6.95192C3.68466 6.95192 3.12501 7.51156 3.12501 8.20192H4.12501C4.12501 8.06385 4.23694 7.95192 4.37501 7.95192V6.95192Z" fill="white"/>
</svg>
