<svg width="20" height="21" viewBox="0 0 20 21" fill="none" xmlns="http://www.w3.org/2000/svg">
<path d="M12.1923 15.6154L2.69232 1M7.80768 15.6154L17.3077 1M19.5 16.3461C19.5 18.3641 17.8641 20 15.8462 20C13.8282 20 12.1923 18.3641 12.1923 16.3461C12.1923 14.3282 13.8282 12.6923 15.8462 12.6923C17.8641 12.6923 19.5 14.3282 19.5 16.3461ZM7.80769 16.3461C7.80769 18.3641 6.17181 20 4.15385 20C2.13588 20 0.5 18.3641 0.5 16.3461C0.5 14.3282 2.13588 12.6923 4.15385 12.6923C6.17181 12.6923 7.80769 14.3282 7.80769 16.3461Z" stroke="black" stroke-linecap="round" stroke-linejoin="round"/>
</svg>
