<svg width="20" height="21" viewBox="0 0 20 21" fill="none" xmlns="http://www.w3.org/2000/svg">
<path d="M10 20C15.2467 20 19.5 15.7467 19.5 10.5C19.5 5.25329 15.2467 1 10 1M10 20C4.75329 20 0.5 15.7467 0.5 10.5C0.5 5.25329 4.75329 1 10 1M10 20C7.57844 20 5.61538 15.7467 5.61538 10.5C5.61538 5.25329 7.57844 1 10 1M10 20C12.4216 20 14.3846 15.7467 14.3846 10.5C14.3846 5.25329 12.4216 1 10 1M0.5 9.76923C0.5 10.98 4.75329 11.9615 10 11.9615C15.2467 11.9615 19.5 10.98 19.5 9.76923" stroke="black" stroke-linecap="round" stroke-linejoin="round"/>
</svg>
