<svg width="17" height="16" viewBox="0 0 17 16" fill="none" xmlns="http://www.w3.org/2000/svg">
<path d="M12.3365 15.125L9.32212 12.1106M15.625 12.3846L12.3365 9.09615L9.32212 12.1106M9.32212 12.1106L4.66346 7.45192L1.92308 10.1923L1.375 10.7404M1.375 10.7404L1.375 3.06731C1.375 1.85653 2.35653 0.874997 3.56731 0.875L13.4327 0.875022C14.6435 0.875024 15.625 1.85655 15.625 3.06733L15.625 12.9327C15.625 14.1435 14.6435 15.125 13.4327 15.125L3.56731 15.125C2.35653 15.125 1.375 14.1435 1.375 12.9327L1.375 10.7404ZM13.4327 4.71154C13.4327 5.61962 12.6965 6.35577 11.7885 6.35577C10.8804 6.35577 10.1442 5.61962 10.1442 4.71154C10.1442 3.80345 10.8804 3.0673 11.7885 3.0673C12.6965 3.0673 13.4327 3.80345 13.4327 4.71154Z" stroke="white" stroke-linecap="round" stroke-linejoin="round"/>
</svg>
