<svg width="20" height="21" viewBox="0 0 20 21" fill="none" xmlns="http://www.w3.org/2000/svg">
<path d="M0.5 11.0237H1H0.5ZM0.5 18.5439H0H0.5ZM18.0385 20V19.5V20ZM1.96154 20V20.5H1.96154L1.96154 20ZM19.5 11.0238H19H19.5ZM19.5 18.5439H20H19.5ZM18.7266 9.05042L18.3595 9.38991L18.7266 9.05042ZM12.1497 1.93887L11.7826 2.27836L12.1497 1.93887ZM7.85031 1.93887L8.21739 2.27835L7.85031 1.93887ZM1.27339 9.05039L0.906305 8.7109H0.906305L1.27339 9.05039ZM7.07692 12.7194H7.57692H7.07692ZM7.07692 19.2719H6.57692H7.07692ZM12.1923 20V19.5V20ZM7.80769 20V20.5V20ZM12.9231 12.7195L13.4231 12.7195V12.7195H12.9231ZM12.9231 19.2719H12.4231H12.9231ZM12.1923 11.9914L12.1923 12.4914L12.1923 11.9914ZM7.80769 11.9914L7.80769 12.4914H7.80769L7.80769 11.9914ZM3.27826e-07 11.0237L0 18.5439H1L1 11.0237H3.27826e-07ZM18.0385 19.5L1.96154 19.5L1.96154 20.5L18.0385 20.5V19.5ZM19 11.0238V18.5439H20V11.0238H19ZM19.0937 8.71094L12.5168 1.59939L11.7826 2.27836L18.3595 9.38991L19.0937 8.71094ZM7.48322 1.59938L0.906305 8.7109L1.64047 9.38987L8.21739 2.27835L7.48322 1.59938ZM12.5168 1.59939C11.1611 0.133542 8.83888 0.133535 7.48322 1.59938L8.21739 2.27835C9.17718 1.24055 10.8228 1.24055 11.7826 2.27836L12.5168 1.59939ZM20 11.0238C20 10.1665 19.6763 9.34089 19.0937 8.71094L18.3595 9.38991C18.7715 9.83542 19 10.4187 19 11.0238H20ZM1 11.0237C1 10.4186 1.22845 9.83538 1.64047 9.38987L0.906305 8.7109C0.323705 9.34085 3.57628e-07 10.1665 3.27826e-07 11.0237H1ZM0 18.5439C-5.96046e-08 19.626 0.879965 20.5 1.96154 20.5V19.5C1.42874 19.5 1 19.0702 1 18.5439H0ZM18.0385 20.5C19.12 20.5 20 19.626 20 18.5439H19C19 19.0702 18.5713 19.5 18.0385 19.5V20.5ZM6.57692 12.7194L6.57692 19.2719H7.57692L7.57692 12.7194H6.57692ZM12.1923 19.5H7.80769V20.5H12.1923V19.5ZM12.4231 12.7195L12.4231 19.2719H13.4231L13.4231 12.7195L12.4231 12.7195ZM12.1923 11.4914L7.8077 11.4914L7.80769 12.4914L12.1923 12.4914L12.1923 11.4914ZM13.4231 12.7195C13.4231 12.0395 12.8703 11.4914 12.1923 11.4914L12.1923 12.4914C12.3215 12.4914 12.4231 12.5953 12.4231 12.7195H13.4231ZM7.57692 12.7194C7.57692 12.5952 7.67849 12.4914 7.80769 12.4914L7.8077 11.4914C7.12971 11.4914 6.57692 12.0395 6.57692 12.7194H7.57692ZM6.57692 19.2719C6.57692 19.9519 7.12971 20.5 7.80769 20.5V19.5C7.67849 19.5 7.57692 19.3961 7.57692 19.2719H6.57692ZM12.1923 20.5C12.8703 20.5 13.4231 19.9519 13.4231 19.2719H12.4231C12.4231 19.3961 12.3215 19.5 12.1923 19.5V20.5Z" fill="black"/>
</svg>
