<svg width="32" height="33" viewBox="0 0 32 33" fill="none" xmlns="http://www.w3.org/2000/svg">
<path d="M10.5 6.5H7V3H6V6.5H2.5V7.5H6V11H7V7.5H10.5V6.5Z" fill="black"/>
<path d="M29 16.4979L26.919 10.1039C26.842 9.92397 26.7139 9.77063 26.5505 9.66289C26.3871 9.55516 26.1957 9.49779 26 9.49789H22V8.49789C22 8.23268 21.8947 7.97832 21.7071 7.79079C21.5196 7.60325 21.2652 7.49789 21 7.49789H15V8.49789H21V21.0539C20.5443 21.3185 20.1456 21.6707 19.8267 22.0901C19.5078 22.5096 19.2751 23.4881 19.142 23.9979H12.858C12.6405 23.1397 12.143 21.8785 11.4442 21.3347C10.7455 20.791 9.88539 20.4958 9.00002 20.4958C8.11464 20.4958 7.25454 20.791 6.55579 21.3347C5.85704 21.8785 5.35955 23.1397 5.14201 23.9979H4.00001V14.4979H3.00001L3 24.4979C3 24.7631 3.10536 25.0175 3.29289 25.205C3.48043 25.3925 3.73478 25.4979 4 25.4979H5.14201C5.35955 26.3561 5.85704 27.1173 6.55579 27.6611C7.25454 28.2048 8.11464 28.5 9.00002 28.5C9.88539 28.5 10.7455 28.2048 11.4442 27.6611C12.143 27.1173 12.6405 25.8561 12.858 24.9979H19.142C19.3596 25.8561 19.857 27.1173 20.5558 27.6611C21.2545 28.2048 22.1146 28.5 23 28.5C23.8854 28.5 24.7455 28.2048 25.4442 27.6611C26.143 27.1173 26.6405 25.8561 26.858 24.9979H28C28.2652 24.9979 28.5196 24.8925 28.7071 24.705C28.8946 24.5175 29 24.2631 29 23.9979V17.4979C29 17.3624 29 16.4979 29 16.4979ZM9.00002 26.4979C8.60445 26.4979 8.21777 26.3806 7.88887 26.1608C7.55998 25.9411 7.30363 25.6287 7.15226 25.2633C7.00088 24.8978 6.96127 24.4957 7.03844 24.1077C7.11561 23.7198 7.3061 23.3634 7.5858 23.0837C7.86551 22.804 8.22187 22.6135 8.60983 22.5363C8.9978 22.4592 9.39993 22.4988 9.76538 22.6501C10.1308 22.8015 10.4432 23.0579 10.663 23.3868C10.8827 23.7157 11 24.1023 11 24.4979C10.9992 25.0281 10.7883 25.5363 10.4134 25.9112C10.0385 26.2861 9.5302 26.4971 9.00002 26.4979ZM22 10.4979L25.2797 10.4996C25.7099 10.4998 26.0918 10.7752 26.2278 11.1833L28 16.4979H22V10.4979ZM23 26.4979C22.6045 26.4979 22.2178 26.3806 21.8889 26.1608C21.56 25.9411 21.3036 25.6287 21.1523 25.2633C21.0009 24.8978 20.9613 24.4957 21.0384 24.1077C21.1156 23.7198 21.3061 23.3634 21.5858 23.0837C21.8655 22.804 22.2219 22.6135 22.6098 22.5363C22.9978 22.4592 23.3999 22.4988 23.7654 22.6501C24.1308 22.8015 24.4432 23.0579 24.663 23.3868C24.8827 23.7157 25 24.1023 25 24.4979C24.9995 25.0282 24.7886 25.5366 24.4136 25.9115C24.0387 26.2865 23.5303 26.4974 23 26.4979ZM28 23.9979H26.858C26.6377 23.1413 26.1394 21.8821 25.4413 21.3392C24.7431 20.7962 22.8844 20.5025 22 20.5L22 17.4979H28V23.9979Z" fill="black"/>
<circle cx="9" cy="24.5" r="3" fill="white"/>
<circle cx="23" cy="24.5" r="3" fill="white"/>
</svg>
