<svg width="32" height="33" viewBox="0 0 32 33" fill="none" xmlns="http://www.w3.org/2000/svg">
<path d="M16 29.8334C23.364 29.8334 29.3334 23.864 29.3334 16.5C29.3334 9.13602 23.364 3.16669 16 3.16669C8.63602 3.16669 2.66669 9.13602 2.66669 16.5C2.66669 23.864 8.63602 29.8334 16 29.8334Z" stroke="black" stroke-width="2" stroke-linecap="round" stroke-linejoin="round"/>
<path d="M15.3334 11.1667C15.5102 11.1667 15.6798 11.0965 15.8048 10.9714C15.9298 10.8464 16 10.6769 16 10.5C16 10.3232 15.9298 10.1537 15.8048 10.0286C15.6798 9.90361 15.5102 9.83337 15.3334 9.83337C15.1566 9.83337 14.987 9.90361 14.862 10.0286C14.7369 10.1537 14.6667 10.3232 14.6667 10.5C14.6667 10.6769 14.7369 10.8464 14.862 10.9714C14.987 11.0965 15.1566 11.1667 15.3334 11.1667ZM10 15.1667C10.1769 15.1667 10.3464 15.0965 10.4714 14.9714C10.5965 14.8464 10.6667 14.6769 10.6667 14.5C10.6667 14.3232 10.5965 14.1537 10.4714 14.0286C10.3464 13.9036 10.1769 13.8334 10 13.8334C9.82323 13.8334 9.65366 13.9036 9.52864 14.0286C9.40361 14.1537 9.33337 14.3232 9.33337 14.5C9.33337 14.6769 9.40361 14.8464 9.52864 14.9714C9.65366 15.0965 9.82323 15.1667 10 15.1667ZM15.3334 17.8334C15.5102 17.8334 15.6798 17.7631 15.8048 17.6381C15.9298 17.5131 16 17.3435 16 17.1667C16 16.9899 15.9298 16.8203 15.8048 16.6953C15.6798 16.5703 15.5102 16.5 15.3334 16.5C15.1566 16.5 14.987 16.5703 14.862 16.6953C14.7369 16.8203 14.6667 16.9899 14.6667 17.1667C14.6667 17.3435 14.7369 17.5131 14.862 17.6381C14.987 17.7631 15.1566 17.8334 15.3334 17.8334Z" fill="black" stroke="black" stroke-width="2" stroke-linecap="round" stroke-linejoin="round"/>
<path d="M22 9C22 7.81331 21.6481 6.65328 20.9888 5.66658C20.3295 4.67989 19.3925 3.91085 18.2961 3.45673C17.1997 3.0026 15.9933 2.88378 14.8295 3.11529C13.6656 3.3468 12.5965 3.91825 11.7574 4.75736C10.9182 5.59648 10.3468 6.66558 10.1153 7.82946C9.88378 8.99335 10.0026 10.1997 10.4567 11.2961C10.9109 12.3925 11.6799 13.3295 12.6666 13.9888C13.6533 14.6481 14.8133 15 16 15C17.5913 15 19.1174 14.3679 20.2426 13.2426C21.3679 12.1174 22 10.5913 22 9ZM16 13C15.2089 13 14.4355 12.7654 13.7777 12.3259C13.1199 11.8864 12.6072 11.2616 12.3045 10.5307C12.0017 9.79983 11.9225 8.99557 12.0769 8.21964C12.2312 7.44372 12.6122 6.73099 13.1716 6.17158C13.731 5.61217 14.4437 5.2312 15.2196 5.07686C15.9956 4.92252 16.7998 5.00173 17.5307 5.30448C18.2616 5.60724 18.8864 6.11993 19.3259 6.77772C19.7654 7.43552 20 8.20888 20 9C19.9967 10.0599 19.5742 11.0754 18.8248 11.8248C18.0754 12.5742 17.0599 12.9967 16 13ZM23.5 16C22.3133 16 21.1533 16.3519 20.1666 17.0112C19.1799 17.6705 18.4109 18.6075 17.9567 19.7039C17.5026 20.8003 17.3838 22.0067 17.6153 23.1705C17.8468 24.3344 18.4182 25.4035 19.2574 26.2426C20.0965 27.0818 21.1656 27.6532 22.3295 27.8847C23.4933 28.1162 24.6997 27.9974 25.7961 27.5433C26.8925 27.0892 27.8295 26.3201 28.4888 25.3334C29.1481 24.3467 29.5 23.1867 29.5 22C29.5 20.4087 28.8679 18.8826 27.7426 17.7574C26.6174 16.6321 25.0913 16 23.5 16ZM23.5 26C22.7089 26 21.9355 25.7654 21.2777 25.3259C20.6199 24.8864 20.1072 24.2616 19.8045 23.5307C19.5017 22.7998 19.4225 21.9956 19.5769 21.2196C19.7312 20.4437 20.1122 19.731 20.6716 19.1716C21.231 18.6122 21.9437 18.2312 22.7196 18.0769C23.4956 17.9225 24.2998 18.0017 25.0307 18.3045C25.7616 18.6072 26.3864 19.1199 26.8259 19.7777C27.2654 20.4355 27.5 21.2089 27.5 22C27.4967 23.0599 27.0742 24.0754 26.3248 24.8248C25.5754 25.5742 24.5599 25.9967 23.5 26ZM8.5 16C7.31331 16 6.15328 16.3519 5.16658 17.0112C4.17989 17.6705 3.41085 18.6075 2.95673 19.7039C2.5026 20.8003 2.38378 22.0067 2.61529 23.1705C2.8468 24.3344 3.41825 25.4035 4.25736 26.2426C5.09648 27.0818 6.16558 27.6532 7.32946 27.8847C8.49335 28.1162 9.69975 27.9974 10.7961 27.5433C11.8925 27.0892 12.8295 26.3201 13.4888 25.3334C14.1481 24.3467 14.5 23.1867 14.5 22C14.5 20.4087 13.8679 18.8826 12.7426 17.7574C11.6174 16.6321 10.0913 16 8.5 16ZM8.5 26C7.70888 26 6.93552 25.7654 6.27772 25.3259C5.61993 24.8864 5.10724 24.2616 4.80448 23.5307C4.50173 22.7998 4.42252 21.9956 4.57686 21.2196C4.7312 20.4437 5.11217 19.731 5.67158 19.1716C6.23099 18.6122 6.94372 18.2312 7.71964 18.0769C8.49557 17.9225 9.29983 18.0017 10.0307 18.3045C10.7616 18.6072 11.3864 19.1199 11.8259 19.7777C12.2654 20.4355 12.5 21.2089 12.5 22C12.4967 23.0599 12.0742 24.0754 11.3248 24.8248C10.5754 25.5742 9.55985 25.9967 8.5 26Z" fill="black"/>
<path d="M20.4167 11.5833C20.4167 10.6768 20.1479 9.7907 19.6442 9.03697C19.1406 8.28325 18.4248 7.69579 17.5873 7.34889C16.7498 7.00199 15.8282 6.91122 14.9392 7.08807C14.0501 7.26492 13.2334 7.70144 12.5924 8.34243C11.9514 8.98342 11.5149 9.80009 11.3381 10.6892C11.1612 11.5782 11.252 12.4998 11.5989 13.3373C11.9458 14.1748 12.5332 14.8906 13.287 15.3942C14.0407 15.8979 14.9268 16.1667 15.8333 16.1667C17.0489 16.1667 18.2147 15.6838 19.0742 14.8242C19.9338 13.9647 20.4167 12.7989 20.4167 11.5833ZM15.8333 15.3333C15.0917 15.3333 14.3666 15.1134 13.7499 14.7013C13.1333 14.2893 12.6526 13.7036 12.3688 13.0184C12.085 12.3332 12.0107 11.5792 12.1554 10.8517C12.3001 10.1243 12.6572 9.45613 13.1817 8.93168C13.7061 8.40724 14.3743 8.05009 15.1017 7.90539C15.8292 7.7607 16.5832 7.83496 17.2684 8.11879C17.9536 8.40262 18.5393 8.88326 18.9513 9.49995C19.3634 10.1166 19.5833 10.8417 19.5833 11.5833C19.5833 12.5779 19.1882 13.5317 18.485 14.235C17.7817 14.9382 16.8279 15.3333 15.8333 15.3333ZM22.0833 17.8333C21.1768 17.8333 20.2907 18.1021 19.537 18.6058C18.7832 19.1094 18.1958 19.8252 17.8489 20.6627C17.502 21.5002 17.4112 22.4217 17.5881 23.3108C17.7649 24.1999 18.2014 25.0166 18.8424 25.6576C19.4834 26.2986 20.3001 26.7351 21.1892 26.9119C22.0782 27.0888 22.9998 26.998 23.8373 26.6511C24.6748 26.3042 25.3906 25.7168 25.8942 24.963C26.3979 24.2093 26.6667 23.3232 26.6667 22.4167C26.6667 21.2011 26.1838 20.0353 25.3242 19.1758C24.4647 18.3162 23.2989 17.8333 22.0833 17.8333ZM22.0833 26.1667C21.3416 26.1667 20.6166 25.9467 19.9999 25.5347C19.3833 25.1226 18.9026 24.5369 18.6188 23.8517C18.335 23.1665 18.2607 22.4125 18.4054 21.6851C18.5501 20.9576 18.9072 20.2895 19.4317 19.765C19.9561 19.2406 20.6243 18.8834 21.3517 18.7387C22.0792 18.594 22.8332 18.6683 23.5184 18.9521C24.2036 19.2359 24.7893 19.7166 25.2013 20.3333C25.6134 20.95 25.8333 21.675 25.8333 22.4167C25.8333 23.4112 25.4382 24.3651 24.735 25.0683C24.0317 25.7716 23.0779 26.1667 22.0833 26.1667ZM9.58333 17.8333C8.67684 17.8333 7.7907 18.1021 7.03697 18.6058C6.28325 19.1094 5.69579 19.8252 5.34889 20.6627C5.00199 21.5002 4.91122 22.4217 5.08807 23.3108C5.26492 24.1999 5.70144 25.0166 6.34243 25.6576C6.98342 26.2986 7.80009 26.7351 8.68917 26.9119C9.57825 27.0888 10.4998 26.998 11.3373 26.6511C12.1748 26.3042 12.8906 25.7168 13.3942 24.963C13.8979 24.2093 14.1667 23.3232 14.1667 22.4167C14.1667 21.2011 13.6838 20.0353 12.8242 19.1758C11.9647 18.3162 10.7989 17.8333 9.58333 17.8333ZM9.58333 26.1667C8.84165 26.1667 8.11663 25.9467 7.49995 25.5347C6.88326 25.1226 6.40262 24.5369 6.11879 23.8517C5.83496 23.1665 5.7607 22.4125 5.90539 21.6851C6.05008 20.9576 6.40724 20.2895 6.93168 19.765C7.45613 19.2406 8.12432 18.8834 8.85175 18.7387C9.57917 18.594 10.3332 18.6683 11.0184 18.9521C11.7036 19.2359 12.2893 19.7166 12.7013 20.3333C13.1134 20.95 13.3333 21.675 13.3333 22.4167C13.3333 23.4112 12.9382 24.3651 12.235 25.0683C11.5317 25.7716 10.5779 26.1667 9.58333 26.1667Z" fill="black"/>
</svg>
