<svg width="22" height="20" viewBox="0 0 22 20" fill="none" xmlns="http://www.w3.org/2000/svg">
<path d="M15.4167 4.58333C15.4167 3.67684 15.1479 2.7907 14.6442 2.03697C14.1406 1.28325 13.4248 0.695789 12.5873 0.348887C11.7498 0.0019859 10.8282 -0.0887794 9.93917 0.0880695C9.05009 0.264918 8.23342 0.701439 7.59243 1.34243C6.95144 1.98342 6.51492 2.80009 6.33807 3.68917C6.16122 4.57825 6.25198 5.49981 6.59889 6.3373C6.94579 7.17479 7.53324 7.89061 8.28697 8.39424C9.04069 8.89786 9.92684 9.16667 10.8333 9.16667C12.0489 9.16667 13.2147 8.68378 14.0742 7.82424C14.9338 6.9647 15.4167 5.79891 15.4167 4.58333ZM10.8333 8.33333C10.0917 8.33333 9.36663 8.1134 8.74994 7.70134C8.13326 7.28929 7.65261 6.70362 7.36878 6.0184C7.08496 5.33317 7.01069 4.57917 7.15539 3.85175C7.30008 3.12432 7.65724 2.45613 8.18168 1.93168C8.70613 1.40724 9.37432 1.05008 10.1017 0.90539C10.8292 0.760696 11.5832 0.834958 12.2684 1.11879C12.9536 1.40262 13.5393 1.88326 13.9513 2.49995C14.3634 3.11663 14.5833 3.84165 14.5833 4.58333C14.5833 5.5779 14.1882 6.53172 13.485 7.23498C12.7817 7.93825 11.8279 8.33333 10.8333 8.33333ZM17.0833 10.8333C16.1768 10.8333 15.2907 11.1021 14.537 11.6058C13.7832 12.1094 13.1958 12.8252 12.8489 13.6627C12.502 14.5002 12.4112 15.4217 12.5881 16.3108C12.7649 17.1999 13.2014 18.0166 13.8424 18.6576C14.4834 19.2986 15.3001 19.7351 16.1892 19.9119C17.0782 20.0888 17.9998 19.998 18.8373 19.6511C19.6748 19.3042 20.3906 18.7168 20.8942 17.963C21.3979 17.2093 21.6667 16.3232 21.6667 15.4167C21.6667 14.2011 21.1838 13.0353 20.3242 12.1758C19.4647 11.3162 18.2989 10.8333 17.0833 10.8333ZM17.0833 19.1667C16.3417 19.1667 15.6166 18.9467 14.9999 18.5347C14.3833 18.1226 13.9026 17.5369 13.6188 16.8517C13.335 16.1665 13.2607 15.4125 13.4054 14.6851C13.5501 13.9576 13.9072 13.2895 14.4317 12.765C14.9561 12.2406 15.6243 11.8834 16.3517 11.7387C17.0792 11.594 17.8332 11.6683 18.5184 11.9521C19.2036 12.2359 19.7893 12.7166 20.2013 13.3333C20.6134 13.95 20.8333 14.675 20.8333 15.4167C20.8333 16.4112 20.4382 17.3651 19.735 18.0683C19.0317 18.7716 18.0779 19.1667 17.0833 19.1667ZM4.58333 10.8333C3.67684 10.8333 2.7907 11.1021 2.03697 11.6058C1.28325 12.1094 0.695789 12.8252 0.348887 13.6627C0.0019859 14.5002 -0.0887794 15.4217 0.0880695 16.3108C0.264918 17.1999 0.701439 18.0166 1.34243 18.6576C1.98342 19.2986 2.80009 19.7351 3.68917 19.9119C4.57825 20.0888 5.4998 19.998 6.3373 19.6511C7.17479 19.3042 7.89061 18.7168 8.39424 17.963C8.89786 17.2093 9.16667 16.3232 9.16667 15.4167C9.16667 14.2011 8.68378 13.0353 7.82424 12.1758C6.9647 11.3162 5.79891 10.8333 4.58333 10.8333ZM4.58333 19.1667C3.84165 19.1667 3.11663 18.9467 2.49995 18.5347C1.88326 18.1226 1.40262 17.5369 1.11879 16.8517C0.834958 16.1665 0.760696 15.4125 0.90539 14.6851C1.05008 13.9576 1.40724 13.2895 1.93168 12.765C2.45613 12.2406 3.12432 11.8834 3.85175 11.7387C4.57917 11.594 5.33317 11.6683 6.0184 11.9521C6.70362 12.2359 7.28929 12.7166 7.70134 13.3333C8.1134 13.95 8.33333 14.675 8.33333 15.4167C8.33333 16.4112 7.93824 17.3651 7.23498 18.0683C6.53172 18.7716 5.5779 19.1667 4.58333 19.1667Z" fill="black"/>
</svg>
