<svg width="32" height="33" viewBox="0 0 32 33" fill="none" xmlns="http://www.w3.org/2000/svg">
<path d="M13.3333 16.5C13.3333 17.2072 13.6143 17.8855 14.1144 18.3856C14.6145 18.8857 15.2927 19.1666 16 19.1666C16.7072 19.1666 17.3855 18.8857 17.8856 18.3856C18.3857 17.8855 18.6666 17.2072 18.6666 16.5C18.6666 15.7927 18.3857 15.1145 17.8856 14.6144C17.3855 14.1143 16.7072 13.8333 16 13.8333C15.2927 13.8333 14.6145 14.1143 14.1144 14.6144C13.6143 15.1145 13.3333 15.7927 13.3333 16.5ZM13.3333 8.49998C13.3333 9.20722 13.6143 9.8855 14.1144 10.3856C14.6145 10.8857 15.2927 11.1666 16 11.1666C16.7072 11.1666 17.3855 10.8857 17.8856 10.3856C18.3857 9.8855 18.6666 9.20722 18.6666 8.49998C18.6666 7.79274 18.3857 7.11446 17.8856 6.61436C17.3855 6.11426 16.7072 5.83331 16 5.83331C15.2927 5.83331 14.6145 6.11426 14.1144 6.61436C13.6143 7.11446 13.3333 7.79274 13.3333 8.49998ZM13.3333 24.5C13.3333 25.2072 13.6143 25.8855 14.1144 26.3856C14.6145 26.8857 15.2927 27.1666 16 27.1666C16.7072 27.1666 17.3855 26.8857 17.8856 26.3856C18.3857 25.8855 18.6666 25.2072 18.6666 24.5C18.6666 23.7927 18.3857 23.1145 17.8856 22.6144C17.3855 22.1143 16.7072 21.8333 16 21.8333C15.2927 21.8333 14.6145 22.1143 14.1144 22.6144C13.6143 23.1145 13.3333 23.7927 13.3333 24.5Z" fill="black"/>
<circle cx="16" cy="16.5" r="2" fill="white"/>
<circle cx="16" cy="8.5" r="2" fill="white"/>
<circle cx="16" cy="24.5" r="2" fill="white"/>
</svg>
