<svg width="175" height="33" viewBox="0 0 175 33" fill="none" xmlns="http://www.w3.org/2000/svg">
<path d="M15.1868 29.7619L23.784 28.0544L17.6302 18.9925L15.1868 29.7619ZM0 32.7757L11.835 30.4267L15.2344 15.4627L6.76526 3.01503L0 32.7757ZM18.5874 14.7973L27.1428 27.3876L38.9701 25.04L21.952 0L18.5874 14.7973Z" fill="white"/>
<path d="M55.7035 9.64404L53.7254 16.559C53.58 17.0477 53.4171 17.6498 53.3257 18.4012C53.2169 17.5924 53.036 17.011 52.9092 16.5777L50.9498 9.64404H47.4474L45.4526 23.0811H48.7368L49.4983 17.2737C49.6071 16.465 49.7152 15.4682 49.788 14.2667C49.9701 15.4501 50.2418 16.2589 50.3866 16.785L52.1458 23.0811H54.5056L56.2661 16.785C56.4116 16.2589 56.6826 15.4501 56.8641 14.2667C56.9375 15.4682 57.0276 16.465 57.1358 17.2737L57.8992 23.0811H61.2014L59.2053 9.64404H55.7035Z" fill="white"/>
<path d="M66.8382 18.0625L68.1442 13.6273C68.1983 13.4206 68.3618 12.8185 68.5981 11.823C68.8337 12.8185 68.9785 13.4206 69.0338 13.6273L70.3579 18.0625H66.8382ZM66.3657 9.64404L61.8843 23.0811H65.4046L66.0754 20.6755H71.1014L71.7547 23.0811H75.2693L70.793 9.64404H66.3657Z" fill="white"/>
<path d="M81.9711 15.3184V18.1368H85.4915C85.3099 19.585 84.0213 20.6371 82.1893 20.6371C80.1024 20.6371 78.7771 19.0962 78.7771 16.5219C78.7771 13.9275 80.1205 12.424 82.1893 12.424C83.3319 12.424 84.2388 12.9321 84.9649 13.9649L88.0315 12.4427C86.6881 10.3944 84.7107 9.34229 82.1893 9.34229C78.1971 9.34229 75.2593 12.2927 75.2593 16.3712C75.2593 18.2695 75.966 20.1111 77.1994 21.4085C78.5061 22.7801 80.1205 23.3995 82.1893 23.3995C86.3978 23.3995 88.9378 20.7685 88.9378 16.1272C88.9378 15.8645 88.9378 15.6004 88.9205 15.3184H81.9711Z" fill="white"/>
<path d="M104.676 12.8186H107.3V23.0813H110.838V12.8186H113.481V9.64417H104.676V12.8186Z" fill="white"/>
<path d="M114.888 12.8186H117.513V23.0813H121.05V12.8186H123.693V9.64417H114.888V12.8186Z" fill="white"/>
<path d="M125.615 23.0811H133.562V20.0741H129.062V17.7998H133.308V14.9241H129.062V12.5937H133.562V9.64404H125.615V23.0811Z" fill="white"/>
<path d="M156.642 15.2627V16.0889C156.642 18.9646 156.55 20.3554 154.392 20.3554C152.559 20.3554 152.142 19.322 152.142 16.935V15.2627V9.64404H148.623V15.3568V16.8976C148.623 19.0026 148.713 20.5815 149.748 21.8036C150.672 22.9111 152.196 23.4372 154.392 23.4372C158.51 23.4372 160.161 21.6896 160.161 17.6311V15.3568V9.64404H156.642V15.2627Z" fill="white"/>
<path d="M169.378 16.1089L173.715 9.64404H169.523L167.963 12.7632C167.854 12.9885 167.637 13.3266 167.509 13.8719C167.382 13.3265 167.182 13.0072 167.074 12.7632L165.514 9.64404H161.304L165.659 16.0329L160.851 23.0812H164.861L167.074 19.096C167.255 18.7773 167.4 18.4199 167.509 17.9871C167.618 18.4199 167.782 18.7773 167.963 19.096L170.158 23.0812H174.168L169.378 16.1089Z" fill="white"/>
<path d="M139.603 18.0625L140.909 13.6273C140.964 13.4206 141.127 12.8185 141.362 11.823C141.599 12.8185 141.743 13.4206 141.799 13.6273L143.123 18.0625H139.603ZM143.558 9.64404H139.131L134.65 23.0811H138.17L138.842 20.6755H143.866L144.52 23.0811H148.04L143.558 9.64404Z" fill="white"/>
<path d="M97.1218 20.3365C95.0529 20.3365 93.7282 18.6083 93.7282 16.39C93.7282 14.191 95.125 12.4428 97.1218 12.4428C99.0992 12.4428 100.514 14.2111 100.514 16.39C100.514 18.589 99.1353 20.3365 97.1218 20.3365ZM102.038 11.41C100.732 10.0945 98.9351 9.34241 97.1218 9.34241C95.3072 9.34241 93.5293 10.0945 92.2226 11.41C90.8985 12.7442 90.1904 14.4731 90.1904 16.39C90.1904 18.5517 91.0794 20.4686 92.7118 21.8221C93.9638 22.8555 95.5428 23.4369 97.1217 23.4369C98.935 23.4369 100.714 22.7055 102.038 21.37C103.344 20.0552 104.052 18.307 104.052 16.39C104.052 14.4917 103.363 12.7442 102.038 11.41Z" fill="white"/>
</svg>
