<svg width="276" height="52" viewBox="0 0 276 52" fill="none" xmlns="http://www.w3.org/2000/svg">
<path d="M24.0183 46.4041L37.6151 43.799L27.8828 29.9738L24.0183 46.4041ZM0 51.002L18.7174 47.4183L24.0936 24.5885L10.6995 5.59779L0 51.002ZM29.3966 23.5733L42.9272 42.7817L61.6325 39.2001L34.7178 0.997925L29.3966 23.5733Z" fill="white"/>
<path d="M88.0965 15.7113L84.9681 26.2611C84.738 27.0067 84.4805 27.9253 84.3359 29.0717C84.1638 27.8378 83.8778 26.9507 83.6772 26.2896L80.5783 15.7113H75.0392L71.8844 36.2116H77.0784L78.2827 27.3515C78.4548 26.1176 78.6258 24.5969 78.7408 22.7638C79.0289 24.5694 79.4585 25.8033 79.6876 26.6059L82.4699 36.2116H86.202L88.9863 26.6059C89.2163 25.8033 89.6449 24.5694 89.932 22.7638C90.0481 24.5969 90.1906 26.1176 90.3616 27.3515L91.569 36.2116H96.7915L93.6346 15.7113H88.0965Z" fill="white"/>
<path d="M105.706 28.5549L107.772 21.7884C107.857 21.4729 108.116 20.5544 108.489 19.0356C108.862 20.5544 109.091 21.4729 109.179 21.7884L111.273 28.5549H105.706ZM104.959 15.7113L97.8713 36.2116H103.439L104.5 32.5414H112.448L113.482 36.2116H119.04L111.961 15.7113H104.959Z" fill="white"/>
<path d="M129.64 24.3683V28.6682H135.207C134.92 30.8776 132.882 32.4828 129.985 32.4828C126.684 32.4828 124.588 30.132 124.588 26.2044C124.588 22.2463 126.713 19.9525 129.985 19.9525C131.792 19.9525 133.226 20.7276 134.374 22.3033L139.224 19.9809C137.1 16.856 133.972 15.2509 129.985 15.2509C123.671 15.2509 119.025 19.7521 119.025 25.9745C119.025 28.8706 120.142 31.6802 122.093 33.6597C124.16 35.7522 126.713 36.6972 129.985 36.6972C136.641 36.6972 140.658 32.6832 140.658 25.6022C140.658 25.2014 140.658 24.7986 140.63 24.3683H129.64Z" fill="white"/>
<path d="M165.548 20.5545H169.698V36.2117H175.293V20.5545H179.473V15.7114H165.548V20.5545Z" fill="white"/>
<path d="M181.698 20.5545H185.85V36.2117H191.444V20.5545H195.624V15.7114H181.698V20.5545Z" fill="white"/>
<path d="M198.664 36.2114H211.232V31.6237H204.116V28.154H210.831V23.7666H204.116V20.2114H211.232V15.7112H198.664V36.2114Z" fill="white"/>
<path d="M247.734 24.2835V25.5438C247.734 29.9311 247.589 32.0531 244.175 32.0531C241.277 32.0531 240.616 30.4764 240.616 26.8347V24.2835V15.7113H235.051V24.427V26.7777C235.051 29.9891 235.193 32.398 236.83 34.2626C238.292 35.9521 240.703 36.7547 244.175 36.7547C250.689 36.7547 253.3 34.0886 253.3 27.8967V24.4269V15.7113H247.734V24.2835Z" fill="white"/>
<path d="M267.876 25.5744L274.736 15.7113H268.106L265.638 20.47C265.466 20.8137 265.123 21.3295 264.921 22.1616C264.72 21.3295 264.404 20.8422 264.233 20.47L261.766 15.7113H255.107L261.995 25.4585L254.39 36.2116H260.733L264.233 30.1316C264.519 29.6454 264.749 29.1001 264.921 28.4399C265.093 29.1001 265.352 29.6454 265.638 30.1316L269.11 36.2116H275.452L267.876 25.5744Z" fill="white"/>
<path d="M220.786 28.5549L222.852 21.7884C222.938 21.4729 223.197 20.5544 223.568 19.0356C223.942 20.5544 224.171 21.4729 224.259 21.7884L226.353 28.5549H220.786ZM227.041 15.7113H220.04L212.952 36.2116H218.52L219.582 32.5414H227.528L228.562 36.2116H234.129L227.041 15.7113Z" fill="white"/>
<path d="M153.6 32.0241C150.328 32.0241 148.233 29.3874 148.233 26.0031C148.233 22.6483 150.442 19.9811 153.6 19.9811C156.728 19.9811 158.965 22.6789 158.965 26.0031C158.965 29.3579 156.785 32.0241 153.6 32.0241ZM161.376 18.4054C159.31 16.3984 156.468 15.251 153.6 15.251C150.731 15.251 147.919 16.3984 145.852 18.4054C143.758 20.4409 142.638 23.0786 142.638 26.0031C142.638 29.301 144.044 32.2256 146.626 34.2905C148.606 35.8672 151.103 36.7543 153.6 36.7543C156.468 36.7543 159.281 35.6384 161.376 33.6009C163.441 31.5949 164.56 28.9277 164.56 26.0032C164.561 23.107 163.471 20.4409 161.376 18.4054Z" fill="white"/>
</svg>
