<svg width="348" height="63" viewBox="0 0 348 63" fill="none" xmlns="http://www.w3.org/2000/svg">
<path d="M30.3442 57.2071L47.5221 53.9249L35.2265 36.5066L30.3442 57.2071ZM0 63L23.6472 58.4849L30.4394 29.7217L13.5175 5.79536L0 63ZM37.139 28.4427L54.2332 52.6433L77.865 48.1308L43.8617 0L37.139 28.4427Z" fill="url(#paint0_linear_157_13825)"/>
<path d="M111.299 18.5374L107.347 31.829C107.056 32.7684 106.731 33.9257 106.548 35.3701C106.331 33.8155 105.97 32.6979 105.716 31.8649L101.801 18.5374H94.8031L90.8174 44.3657H97.3793L98.9009 33.2029C99.1182 31.6483 99.3343 29.7323 99.4797 27.4228C99.8436 29.6977 100.386 31.2523 100.676 32.2635L104.191 44.3657H108.906L112.424 32.2635C112.714 31.2523 113.256 29.6977 113.618 27.4228C113.765 29.7323 113.945 31.6483 114.161 33.2029L115.687 44.3657H122.284L118.296 18.5374H111.299Z" fill="#17174B"/>
<path d="M133.547 34.7191L136.156 26.1939C136.264 25.7965 136.591 24.6393 137.063 22.7257C137.534 24.6393 137.823 25.7965 137.934 26.1939L140.579 34.7191H133.547ZM132.603 18.5374L123.648 44.3657H130.682L132.023 39.7416H142.065L143.37 44.3657H150.393L141.449 18.5374H132.603Z" fill="#17174B"/>
<path d="M163.784 29.4443V34.8617H170.818C170.455 37.6454 167.881 39.6677 164.22 39.6677C160.05 39.6677 157.402 36.7059 157.402 31.7577C157.402 26.7708 160.087 23.8809 164.22 23.8809C166.503 23.8809 168.315 24.8574 169.766 26.8426L175.893 23.9167C173.209 19.9797 169.258 17.9573 164.22 17.9573C156.244 17.9573 150.374 23.6284 150.374 31.468C150.374 35.1167 151.786 38.6566 154.25 41.1505C156.861 43.7868 160.087 44.9775 164.22 44.9775C172.629 44.9775 177.704 39.9202 177.704 30.9989C177.704 30.494 177.704 29.9865 177.67 29.4443H163.784Z" fill="#17174B"/>
<path d="M209.149 24.6393H214.393V44.3658H221.462V24.6393H226.743V18.5375H209.149V24.6393Z" fill="#17174B"/>
<path d="M229.554 24.6393H234.799V44.3658H241.866V24.6393H247.147V18.5375H229.554V24.6393Z" fill="#17174B"/>
<path d="M250.988 44.3655H266.866V38.5855H257.876V34.2139H266.359V28.6863H257.876V24.2071H266.866V18.5373H250.988V44.3655Z" fill="#17174B"/>
<path d="M312.982 29.3374V30.9254C312.982 36.4529 312.798 39.1264 308.486 39.1264C304.824 39.1264 303.989 37.1399 303.989 32.5518V29.3374V18.5374H296.958V29.5182V32.48C296.958 36.526 297.138 39.5609 299.206 41.9101C301.053 44.0388 304.099 45.05 308.486 45.05C316.715 45.05 320.014 41.6909 320.014 33.8897V29.5182V18.5374H312.982V29.3374Z" fill="#17174B"/>
<path d="M338.428 30.9638L347.094 18.5374H338.719L335.601 24.5328C335.384 24.9659 334.951 25.6157 334.695 26.664C334.441 25.6157 334.041 25.0018 333.825 24.5328L330.709 18.5374H322.296L330.998 30.8178L321.391 44.3657H329.403L333.825 36.7055C334.187 36.0928 334.477 35.4059 334.695 34.5741C334.912 35.4059 335.24 36.0928 335.601 36.7055L339.987 44.3657H348L338.428 30.9638Z" fill="#17174B"/>
<path d="M278.936 34.7191L281.546 26.1939C281.655 25.7965 281.982 24.6393 282.451 22.7257C282.923 24.6393 283.212 25.7965 283.323 26.1939L285.969 34.7191H278.936ZM286.838 18.5374H277.993L269.039 44.3657H276.073L277.414 39.7416H287.454L288.76 44.3657H295.794L286.838 18.5374Z" fill="#17174B"/>
<path d="M194.055 39.0899C189.922 39.0899 187.275 35.768 187.275 31.5041C187.275 27.2773 190.066 23.9169 194.055 23.9169C198.006 23.9169 200.833 27.3158 200.833 31.5041C200.833 35.7308 198.078 39.0899 194.055 39.0899ZM203.879 21.9317C201.268 19.4031 197.678 17.9575 194.055 17.9575C190.43 17.9575 186.877 19.4031 184.266 21.9317C181.621 24.4962 180.206 27.8194 180.206 31.5041C180.206 35.6591 181.982 39.3437 185.244 41.9453C187.745 43.9318 190.9 45.0494 194.055 45.0494C197.678 45.0494 201.232 43.6435 203.879 41.0765C206.487 38.5491 207.902 35.1887 207.902 31.5041C207.902 27.8553 206.526 24.4962 203.879 21.9317Z" fill="#17174B"/>
<defs>
<linearGradient id="paint0_linear_157_13825" x1="39.0679" y1="56.3562" x2="29.8884" y2="2.3762" gradientUnits="userSpaceOnUse">
<stop stop-color="#0F1324"/>
<stop offset="0.1983" stop-color="#14133B"/>
<stop offset="0.2269" stop-color="#151843"/>
<stop offset="0.3589" stop-color="#162B65"/>
<stop offset="0.4559" stop-color="#12377B"/>
<stop offset="0.5067" stop-color="#0E3B83"/>
<stop offset="0.5671" stop-color="#08438C"/>
<stop offset="0.7053" stop-color="#00529D"/>
<stop offset="0.8458" stop-color="#005BA7"/>
<stop offset="0.9909" stop-color="#005FAA"/>
</linearGradient>
</defs>
</svg>
